<?xml version="1.0" encoding="utf-8"?>
<!-- Generator: Adobe Illustrator 19.2.1, SVG Export Plug-In . SVG Version: 6.00 Build 0)  -->
<svg version="1.1" id="Layer_1" xmlns="http://www.w3.org/2000/svg" xmlns:xlink="http://www.w3.org/1999/xlink" x="0px" y="0px"
	 viewBox="0 0 55.7 36" style="enable-background:new 0 0 55.7 36;" xml:space="preserve">
<style type="text/css">
	.st0{fill:none;stroke:#FFFFFF;stroke-width:2;stroke-miterlimit:10;}
	.st1{fill:#FFFFFF;}
</style>
<g>
	<g>
		<line class="st0" x1="50.7" y1="10.2" x2="50.7" y2="20"/>
		<line class="st0" x1="55.6" y1="15.1" x2="45.8" y2="15.1"/>
	</g>
	<g>
		<path class="st1" d="M30,15.2C30,15.2,30,15.2,30,15.2c0-0.1,0-0.1,0-0.1c0,0,0,0,0,0c0,0,0-0.1,0-0.1c0,0,0,0,0,0c0,0,0,0,0-0.1
			c0,0,0,0,0,0c0,0,0,0,0,0c0,0,0,0,0-0.1c0,0,0,0,0,0c0,0,0-0.1-0.1-0.1c0,0,0,0,0,0c0,0,0,0-0.1-0.1c0,0,0,0,0,0
			c0,0-0.1,0-0.1-0.1l-13-7.4L24,2.4l12.6,7.2l-5.3,3.3c-0.4,0.3-0.5,0.8-0.3,1.2c0.3,0.4,0.8,0.5,1.2,0.3l6.5-4.1
			c0.3-0.2,0.4-0.5,0.4-0.8c0-0.3-0.2-0.6-0.4-0.7L24.5,0.6c-0.3-0.2-0.6-0.2-0.9,0l-9.2,5.8c0,0,0,0,0,0L9.8,9.3c0,0,0,0,0,0
			l-9.2,5.8c-0.3,0.2-0.4,0.5-0.4,0.8c0,0.3,0.2,0.6,0.4,0.7l14.3,8.1c0.1,0.1,0.3,0.1,0.4,0.1c0.2,0,0.3,0,0.5-0.1l6.5-4.1
			c0.4-0.3,0.5-0.8,0.3-1.2c-0.3-0.4-0.8-0.5-1.2-0.3L15.3,23L2.7,15.8l7.5-4.7l13.4,7.6v10.1c0,0.3,0.2,0.6,0.5,0.8
			c0.1,0.1,0.3,0.1,0.4,0.1c0.2,0,0.3,0,0.5-0.1l4.6-2.9c0.3-0.2,0.4-0.4,0.4-0.7V15.3C30,15.3,30,15.3,30,15.2
			C30,15.3,30,15.3,30,15.2z M25.4,27.2v-9c0-0.3-0.2-0.6-0.4-0.8l-13-7.4l2.9-1.8l12.6,7.2l-1.1,0.7c-0.4,0.3-0.5,0.8-0.3,1.2
			c0.2,0.3,0.5,0.4,0.7,0.4c0.2,0,0.3,0,0.5-0.1l1-0.6v8.5L25.4,27.2z"/>
		<path class="st1" d="M37.9,12.3l-6.5,4.1c-0.4,0.3-0.5,0.8-0.3,1.2c0.2,0.3,0.5,0.4,0.7,0.4c0.2,0,0.3,0,0.5-0.1l6.5-4.1
			c0.4-0.3,0.5-0.8,0.3-1.2C38.8,12.2,38.3,12.1,37.9,12.3z"/>
		<path class="st1" d="M21.4,22.7l-6.1,3.8L1.5,18.7c-0.4-0.2-1-0.1-1.2,0.3c-0.2,0.4-0.1,1,0.3,1.2l14.3,8.1
			c0.1,0.1,0.3,0.1,0.4,0.1c0.2,0,0.3,0,0.5-0.1l6.5-4.1c0.4-0.3,0.5-0.8,0.3-1.2C22.4,22.6,21.8,22.4,21.4,22.7z"/>
		<path class="st1" d="M37.9,15.9L31.3,20c-0.4,0.3-0.5,0.8-0.3,1.2c0.2,0.3,0.5,0.4,0.7,0.4c0.2,0,0.3,0,0.5-0.1l6.5-4.1
			c0.4-0.3,0.5-0.8,0.3-1.2C38.8,15.7,38.3,15.6,37.9,15.9z"/>
		<path class="st1" d="M21.4,26.2l-6.1,3.8L1.5,22.2c-0.4-0.2-1-0.1-1.2,0.3c-0.2,0.4-0.1,1,0.3,1.2l14.3,8.1
			c0.1,0.1,0.3,0.1,0.4,0.1c0.2,0,0.3,0,0.5-0.1l6.5-4.1c0.4-0.3,0.5-0.8,0.3-1.2C22.4,26.1,21.8,26,21.4,26.2z"/>
		<path class="st1" d="M37.9,19.4l-6.5,4.1c-0.4,0.3-0.5,0.8-0.3,1.2c0.2,0.3,0.5,0.4,0.7,0.4c0.2,0,0.3,0,0.5-0.1l6.5-4.1
			c0.4-0.3,0.5-0.8,0.3-1.2C38.8,19.3,38.3,19.1,37.9,19.4z"/>
		<path class="st1" d="M21.4,29.8l-6.1,3.8L1.5,25.7c-0.4-0.2-1-0.1-1.2,0.3c-0.2,0.4-0.1,1,0.3,1.2l14.3,8.1
			c0.1,0.1,0.3,0.1,0.4,0.1c0.2,0,0.3,0,0.5-0.1l6.5-4.1c0.4-0.3,0.5-0.8,0.3-1.2C22.4,29.6,21.8,29.5,21.4,29.8z"/>
	</g>
</g>
</svg>
