<?xml version="1.0" encoding="utf-8"?>
<!-- Generator: Adobe Illustrator 19.2.1, SVG Export Plug-In . SVG Version: 6.00 Build 0)  -->
<svg version="1.1" id="Layer_1" xmlns="http://www.w3.org/2000/svg" xmlns:xlink="http://www.w3.org/1999/xlink" x="0px" y="0px"
	 viewBox="0 0 19.7 23.3" style="enable-background:new 0 0 19.7 23.3;" xml:space="preserve">
<style type="text/css">
	.st0{fill:#FFFFFF;}
</style>
<g>
	<path class="st0" d="M15.8,9.1V7c0-3-2.7-5.4-5.9-5.4S3.9,4.1,3.9,7v2.1c-1.3,0.2-2.2,1.3-2.2,2.6V19c0,1.5,1.2,2.7,2.7,2.7h10.9
		c1.5,0,2.7-1.2,2.7-2.7v-7.2C18,10.4,17,9.3,15.8,9.1z M4.6,7c0-2.6,2.3-4.6,5.2-4.6S15,4.5,15,7v2H4.6V7z M17.2,19
		c0,1.1-0.9,1.9-1.9,1.9H4.4c-1.1,0-1.9-0.9-1.9-1.9v-7.2c0-1.1,0.9-1.9,1.9-1.9h10.9c1.1,0,1.9,0.9,1.9,1.9V19z"/>
	<path class="st0" d="M9.8,12.8c-0.8,0-1.5,0.7-1.5,1.5v2.2C8.4,17.3,9,18,9.8,18c0.8,0,1.5-0.7,1.5-1.5v-2.2
		C11.3,13.4,10.7,12.8,9.8,12.8z"/>
</g>
</svg>
