<?xml version="1.0" encoding="utf-8"?>
<!-- Generator: Adobe Illustrator 19.2.1, SVG Export Plug-In . SVG Version: 6.00 Build 0)  -->
<svg version="1.1" id="Layer_1" xmlns="http://www.w3.org/2000/svg" xmlns:xlink="http://www.w3.org/1999/xlink" x="0px" y="0px"
	 viewBox="0 0 61.5 19.5" style="enable-background:new 0 0 61.5 19.5;" xml:space="preserve">
<style type="text/css">
	.st0{fill:#5E84A3;}
</style>
<g>
	<g>
		<g id="Layer_1_copy_1_">
			<path class="st0" d="M57.3,2.7h-3c-0.9,0-1.6,0.3-2,1.2L46.4,17h4.1c0,0,0.7-1.8,0.8-2.1c0.4,0,4.4,0,5,0
				c0.1,0.5,0.5,2.1,0.5,2.1h3.6L57.3,2.7z M52.5,11.9c0.3-0.8,1.5-4,1.5-4c0,0,0.3-0.8,0.5-1.4l0.3,1.2c0,0,0.7,3.4,0.9,4.1H52.5z
				 M46.7,12.3c0,3-2.7,4.9-6.8,4.9c-1.7,0-3.4-0.4-4.3-0.8l0.5-3.2l0.5,0.2c1.3,0.5,2.1,0.7,3.7,0.7c1.1,0,2.3-0.4,2.3-1.4
				c0-0.6-0.5-1.1-2-1.8c-1.5-0.7-3.4-1.8-3.4-3.9c0-2.8,2.7-4.7,6.6-4.7c1.5,0,2.7,0.3,3.5,0.6l-0.5,3.1L46.4,6
				c-0.7-0.3-1.6-0.6-2.9-0.5c-1.5,0-2.2,0.6-2.2,1.2c0,0.7,0.8,1.1,2.2,1.8C45.7,9.4,46.7,10.7,46.7,12.3z M12.6,2.9l0.1-0.3h6
				c0.8,0,1.5,0.3,1.7,1.2l1.3,6.3C20.4,6.7,17.3,4,12.6,2.9z M30.2,2.7L24,16.9l-4.1,0L16.4,5.1c2.5,1.6,4.6,4.1,5.4,5.9l0.4,1.5
				L26,2.7L30.2,2.7L30.2,2.7z M31.7,2.7h3.9L33.2,17h-3.9L31.7,2.7z"/>
		</g>
	</g>
	<g>
		<path class="st0" d="M1.1,3.1c0-0.4,0.3-0.7,0.7-0.7s0.7,0.3,0.7,0.7v0.3c0.4-0.6,1-1.1,2-1.1c0.9,0,1.6,0.5,1.9,1.1
			C7,2.8,7.6,2.3,8.6,2.3c1.4,0,2.3,0.9,2.3,2.5v3.5c0,0.4-0.3,0.7-0.7,0.7S9.4,8.7,9.4,8.3v-3c0-1-0.5-1.6-1.3-1.6
			c-0.8,0-1.4,0.6-1.4,1.6v3C6.7,8.7,6.4,9,6,9C5.6,9,5.2,8.7,5.2,8.3v-3c0-1-0.5-1.6-1.3-1.6c-0.8,0-1.4,0.6-1.4,1.6v3
			C2.5,8.7,2.2,9,1.8,9C1.4,9,1.1,8.7,1.1,8.3V3.1z"/>
	</g>
</g>
</svg>
