<?xml version="1.0" encoding="utf-8"?>
<!-- Generator: Adobe Illustrator 19.2.1, SVG Export Plug-In . SVG Version: 6.00 Build 0)  -->
<svg version="1.1" id="Layer_1" xmlns="http://www.w3.org/2000/svg" xmlns:xlink="http://www.w3.org/1999/xlink" x="0px" y="0px"
	 viewBox="0 0 27.6 31.3" style="enable-background:new 0 0 27.6 31.3;" xml:space="preserve">
<style type="text/css">
	.st0{fill:#FFFFFF;}
</style>
<g>
	<path class="st0" d="M26.8,20.1h-2.7v-7.3c0-3.8-2.5-7-5.9-8c-0.1-2.3-1.9-4.1-4.2-4.1h-0.1c-2.3,0-4.1,1.8-4.2,4
		c-3.5,1-6.1,4.3-6.1,8.1v7.3H0.8V27h8.7c0.3,2,2.1,3.6,4.2,3.6s3.9-1.6,4.2-3.6h8.7L26.8,20.1L26.8,20.1z M13.9,2L13.9,2
		c1.5,0,2.7,1.1,2.9,2.4c-0.4-0.1-0.8-0.1-1.2-0.1H12c-0.3,0-0.6,0-0.9,0C11.3,3.1,12.5,2,13.9,2z M13.8,29.3c-1.4,0-2.6-1-2.9-2.3
		h5.7C16.4,28.3,15.2,29.3,13.8,29.3z M25.4,25.7H2.2v-4.2h2.7v-8.7c0-3.9,3.2-7.1,7.1-7.1h3.7c3.9,0,7.1,3.2,7.1,7.1v8.7h2.7V25.7z
		"/>
</g>
</svg>
