<?xml version="1.0" encoding="utf-8"?>
<!-- Generator: Adobe Illustrator 19.2.1, SVG Export Plug-In . SVG Version: 6.00 Build 0)  -->
<svg version="1.1" id="Layer_1" xmlns="http://www.w3.org/2000/svg" xmlns:xlink="http://www.w3.org/1999/xlink" x="0px" y="0px"
	 viewBox="0 0 45.6 32.3" style="enable-background:new 0 0 45.6 32.3;" xml:space="preserve">
<style type="text/css">
	.st0{fill:#007BAD;}
</style>
<g id="Credit-card">
	<path class="st0" d="M7.8,21.7H16c0.4,0,0.7-0.3,0.7-0.7c0-0.4-0.3-0.7-0.7-0.7H7.8c-0.4,0-0.7,0.3-0.7,0.7
		C7.1,21.3,7.4,21.7,7.8,21.7z"/>
	<path class="st0" d="M7.8,25.1H16c0.4,0,0.7-0.3,0.7-0.7c0-0.4-0.3-0.7-0.7-0.7H7.8c-0.4,0-0.7,0.3-0.7,0.7
		C7.1,24.7,7.4,25.1,7.8,25.1z"/>
	<path class="st0" d="M42.6,1.2H3.1C1.9,1.2,1,2.1,1,3.3v25.8c0,1.2,0.9,2.1,2.1,2.1h39.5c1.1,0,2.1-0.9,2.1-2.1V3.3
		C44.6,2.1,43.7,1.2,42.6,1.2z M43.3,29.1c0,0.4-0.3,0.7-0.7,0.7H3.1c-0.4,0-0.7-0.3-0.7-0.7V13.4h40.9V29.1z M43.3,12H2.4V7.9h40.9
		V12z M43.3,6.5H2.4V3.3c0-0.4,0.3-0.7,0.7-0.7h39.5c0.4,0,0.7,0.3,0.7,0.7V6.5z"/>
	<path class="st0" d="M28.3,26.4c1.4,0,2.7-0.7,3.4-1.8c0.7,1.1,2,1.8,3.4,1.8c2.3,0,4.1-1.8,4.1-4.1c0-2.3-1.8-4.1-4.1-4.1
		c-1.4,0-2.7,0.7-3.4,1.8c-0.7-1.1-2-1.8-3.4-1.8c-2.3,0-4.1,1.8-4.1,4.1C24.2,24.6,26,26.4,28.3,26.4z M35.1,19.6
		c1.5,0,2.7,1.2,2.7,2.7c0,1.5-1.2,2.7-2.7,2.7s-2.7-1.2-2.7-2.7C32.4,20.8,33.6,19.6,35.1,19.6z M28.3,19.6c1.5,0,2.7,1.2,2.7,2.7
		c0,1.5-1.2,2.7-2.7,2.7c-1.5,0-2.7-1.2-2.7-2.7C25.6,20.8,26.8,19.6,28.3,19.6z"/>
</g>
</svg>
