<?xml version="1.0" encoding="utf-8"?>
<!-- Generator: Adobe Illustrator 19.2.1, SVG Export Plug-In . SVG Version: 6.00 Build 0)  -->
<svg version="1.1" id="Layer_1" xmlns="http://www.w3.org/2000/svg" xmlns:xlink="http://www.w3.org/1999/xlink" x="0px" y="0px"
	 viewBox="0 0 24.5 41.5" style="enable-background:new 0 0 24.5 41.5;" xml:space="preserve">
<style type="text/css">
	.st0{fill:#A73E65;}
</style>
<g>
	<g>
		<path class="st0" d="M20.5,1.1H4C2.4,1.1,1.1,2.4,1.1,4v33.6c0,1.6,1.3,2.9,2.9,2.9h16.5c1.6,0,2.9-1.3,2.9-2.9V4
			C23.4,2.4,22.1,1.1,20.5,1.1z M2.4,6.3h19.7v24.9H2.4V6.3z M4,2.4h16.5c0.9,0,1.6,0.7,1.6,1.6v1H2.4V4C2.4,3.1,3.1,2.4,4,2.4z
			 M20.5,39.1H4c-0.9,0-1.6-0.7-1.6-1.6v-5h19.7v5C22.1,38.4,21.4,39.1,20.5,39.1z"/>
		<path class="st0" d="M12.3,33.2c-1.4,0-2.6,1.2-2.6,2.6s1.2,2.6,2.6,2.6s2.6-1.2,2.6-2.6S13.7,33.2,12.3,33.2z M12.3,37.1
			c-0.7,0-1.3-0.6-1.3-1.3s0.6-1.3,1.3-1.3s1.3,0.6,1.3,1.3S13,37.1,12.3,37.1z"/>
		<path class="st0" d="M10.9,4.4h2.6c0.4,0,0.7-0.3,0.7-0.7S13.9,3,13.6,3h-2.6c-0.4,0-0.7,0.3-0.7,0.7S10.6,4.4,10.9,4.4z"/>
	</g>
	<g>
		<polygon class="st0" points="13.3,17 15.8,10.5 7.8,18.9 10.6,18.8 7.2,26.5 16,17 		"/>
	</g>
</g>
</svg>
