<?xml version="1.0" encoding="utf-8"?>
<!-- Generator: Adobe Illustrator 19.2.1, SVG Export Plug-In . SVG Version: 6.00 Build 0)  -->
<svg version="1.1" id="Layer_1" xmlns="http://www.w3.org/2000/svg" xmlns:xlink="http://www.w3.org/1999/xlink" x="0px" y="0px"
	 viewBox="0 0 64 64" style="enable-background:new 0 0 64 64;" xml:space="preserve">
<style type="text/css">
	.st0{fill:#5E84A3;stroke:none;stroke-miterlimit:10;}
	.st1{fill:#FFFFFF;}
</style>
<g>
	<circle class="st0" cx="32" cy="32" r="30"/>
	<g>
		<g>
			<path class="st1" d="M38.5,16H25.1c-1.3,0-2.3,1.1-2.3,2.3v27.3c0,1.3,1.1,2.3,2.3,2.3h13.4c1.3,0,2.3-1.1,2.3-2.3V18.3
				C40.9,17.1,39.8,16,38.5,16z M23.8,20.3h16v20.3h-16V20.3z M25.1,17.1h13.4c0.7,0,1.3,0.6,1.3,1.3v0.9h-16v-0.9
				C23.8,17.6,24.4,17.1,25.1,17.1z M38.5,46.9H25.1c-0.7,0-1.3-0.6-1.3-1.3v-4.1h16v4.1C39.8,46.4,39.2,46.9,38.5,46.9z"/>
			<path class="st1" d="M31.8,42.1c-1.2,0-2.1,1-2.1,2.1s1,2.1,2.1,2.1s2.1-1,2.1-2.1S33,42.1,31.8,42.1z M31.8,45.3
				c-0.6,0-1.1-0.5-1.1-1.1s0.5-1.1,1.1-1.1c0.6,0,1.1,0.5,1.1,1.1S32.4,45.3,31.8,45.3z"/>
			<path class="st1" d="M30.7,18.7h2.1c0.3,0,0.5-0.2,0.5-0.5s-0.2-0.5-0.5-0.5h-2.1c-0.3,0-0.5,0.2-0.5,0.5S30.4,18.7,30.7,18.7z"
				/>
		</g>
		<g>
			<polygon class="st1" points="32.6,29 34.7,23.7 28.2,30.5 30.4,30.4 27.7,36.7 34.8,29 			"/>
		</g>
	</g>
</g>
</svg>
