<?xml version="1.0" encoding="utf-8"?>
<!-- Generator: Adobe Illustrator 19.2.1, SVG Export Plug-In . SVG Version: 6.00 Build 0)  -->
<svg version="1.1" id="Layer_1" xmlns="http://www.w3.org/2000/svg" xmlns:xlink="http://www.w3.org/1999/xlink" x="0px" y="0px"
	 viewBox="0 0 39.9 36" style="enable-background:new 0 0 39.9 36;" xml:space="preserve">
<style type="text/css">
	.st0{fill:#FCA04D;}
</style>
<g>
	<path class="st0" d="M30.3,15.2C30.3,15.2,30.3,15.2,30.3,15.2c0-0.1,0-0.1,0-0.1c0,0,0,0,0,0c0,0,0-0.1,0-0.1c0,0,0,0,0,0
		c0,0,0,0,0-0.1c0,0,0,0,0,0c0,0,0,0,0,0c0,0,0,0,0-0.1c0,0,0,0,0,0c0,0,0-0.1-0.1-0.1c0,0,0,0,0,0c0,0,0,0-0.1-0.1c0,0,0,0,0,0
		c0,0-0.1,0-0.1-0.1l-13-7.4l7.5-4.7l12.6,7.2l-5.3,3.3c-0.4,0.3-0.5,0.8-0.3,1.2c0.3,0.4,0.8,0.5,1.2,0.3l6.5-4.1
		c0.3-0.2,0.4-0.5,0.4-0.8c0-0.3-0.2-0.6-0.4-0.7L24.7,0.6c-0.3-0.2-0.6-0.2-0.9,0l-9.2,5.8c0,0,0,0,0,0L10,9.3c0,0,0,0,0,0
		l-9.2,5.8c-0.3,0.2-0.4,0.5-0.4,0.8c0,0.3,0.2,0.6,0.4,0.7l14.3,8.1c0.1,0.1,0.3,0.1,0.4,0.1c0.2,0,0.3,0,0.5-0.1l6.5-4.1
		c0.4-0.3,0.5-0.8,0.3-1.2c-0.3-0.4-0.8-0.5-1.2-0.3L15.6,23L3,15.8l7.5-4.7l13.4,7.6v10.1c0,0.3,0.2,0.6,0.5,0.8
		c0.1,0.1,0.3,0.1,0.4,0.1c0.2,0,0.3,0,0.5-0.1l4.6-2.9c0.3-0.2,0.4-0.4,0.4-0.7V15.3C30.3,15.3,30.3,15.3,30.3,15.2
		C30.3,15.3,30.3,15.2,30.3,15.2z M25.7,27.2v-9c0-0.3-0.2-0.6-0.4-0.8l-13-7.4l2.9-1.8l12.6,7.2L26.6,16c-0.4,0.3-0.5,0.8-0.3,1.2
		c0.2,0.3,0.5,0.4,0.7,0.4c0.2,0,0.3,0,0.5-0.1l1-0.6v8.5L25.7,27.2z"/>
	<path class="st0" d="M38.1,12.3l-6.5,4.1c-0.4,0.3-0.5,0.8-0.3,1.2c0.2,0.3,0.5,0.4,0.7,0.4c0.2,0,0.3,0,0.5-0.1l6.5-4.1
		c0.4-0.3,0.5-0.8,0.3-1.2C39.1,12.2,38.5,12,38.1,12.3z"/>
	<path class="st0" d="M21.7,22.7l-6.1,3.8L1.7,18.6c-0.4-0.2-1-0.1-1.2,0.3c-0.2,0.4-0.1,1,0.3,1.2l14.3,8.1
		c0.1,0.1,0.3,0.1,0.4,0.1c0.2,0,0.3,0,0.5-0.1l6.5-4.1c0.4-0.3,0.5-0.8,0.3-1.2C22.6,22.5,22.1,22.4,21.7,22.7z"/>
	<path class="st0" d="M38.1,15.8L31.6,20c-0.4,0.3-0.5,0.8-0.3,1.2c0.2,0.3,0.5,0.4,0.7,0.4c0.2,0,0.3,0,0.5-0.1l6.5-4.1
		c0.4-0.3,0.5-0.8,0.3-1.2C39.1,15.7,38.5,15.6,38.1,15.8z"/>
	<path class="st0" d="M21.7,26.2l-6.1,3.8L1.7,22.2c-0.4-0.2-1-0.1-1.2,0.3c-0.2,0.4-0.1,1,0.3,1.2l14.3,8.1
		c0.1,0.1,0.3,0.1,0.4,0.1c0.2,0,0.3,0,0.5-0.1l6.5-4.1c0.4-0.3,0.5-0.8,0.3-1.2C22.6,26.1,22.1,26,21.7,26.2z"/>
	<path class="st0" d="M38.1,19.4l-6.5,4.1c-0.4,0.3-0.5,0.8-0.3,1.2c0.2,0.3,0.5,0.4,0.7,0.4c0.2,0,0.3,0,0.5-0.1l6.5-4.1
		c0.4-0.3,0.5-0.8,0.3-1.2C39.1,19.3,38.5,19.1,38.1,19.4z"/>
	<path class="st0" d="M21.7,29.8l-6.1,3.8L1.7,25.7c-0.4-0.2-1-0.1-1.2,0.3c-0.2,0.4-0.1,1,0.3,1.2l14.3,8.1
		c0.1,0.1,0.3,0.1,0.4,0.1c0.2,0,0.3,0,0.5-0.1l6.5-4.1c0.4-0.3,0.5-0.8,0.3-1.2C22.6,29.6,22.1,29.5,21.7,29.8z"/>
</g>
</svg>
