<?xml version="1.0" encoding="utf-8"?>
<!-- Generator: Adobe Illustrator 19.2.1, SVG Export Plug-In . SVG Version: 6.00 Build 0)  -->
<svg version="1.1" id="Layer_1" xmlns="http://www.w3.org/2000/svg" xmlns:xlink="http://www.w3.org/1999/xlink" x="0px" y="0px"
	 viewBox="0 0 64 64" style="enable-background:new 0 0 64 64;" xml:space="preserve">
<style type="text/css">
	.st0{fill:#A73E65;stroke:none;stroke-miterlimit:10;}
	.st1{fill:#FFFFFF;}
</style>
<g>
	<circle class="st0" cx="32" cy="32" r="30"/>
	<g>
		<path class="st1" d="M26.2,21.2h-1.1c0.3-0.4,0.5-1,0.5-1.6c0-1.4-1.2-2.6-2.6-2.6c-0.9,0-1.6,0.4-2.1,1.1
			c-0.5-0.6-1.2-1.1-2.1-1.1c-1.4,0-2.6,1.2-2.6,2.6c0,0.6,0.2,1.1,0.5,1.6h-1.1c-0.3,0-0.5,0.2-0.5,0.5v22c0,1.4,1.2,2.6,2.6,2.6
			h6.3c1.4,0,2.6-1.2,2.6-2.6v-22C26.8,21.4,26.5,21.2,26.2,21.2z M23.1,18c0.9,0,1.6,0.7,1.6,1.6c0,0.9-0.7,1.6-1.6,1.6h-1.6v-1.6
			C21.5,18.7,22.2,18,23.1,18z M17.4,19.6c0-0.9,0.7-1.6,1.6-1.6c0.9,0,1.6,0.7,1.6,1.6v1.6h-1.6C18.1,21.2,17.4,20.5,17.4,19.6z
			 M16.3,43.7V22.2h2.6h1.6v23h-2.6C17,45.2,16.3,44.5,16.3,43.7z M25.7,43.7c0,0.9-0.7,1.6-1.6,1.6h-2.6v-23h1.6h2.6V43.7z"/>
		<path class="st1" d="M48.2,25.9h-3.9c0.5-0.6,0.8-1.3,0.8-2.1c0-1.7-1.4-3.1-3.1-3.1c-1.7,0-3.1,1.4-3.1,3.1
			c0-1.7-1.4-3.1-3.1-3.1c-1.7,0-3.1,1.4-3.1,3.1c0,0.8,0.3,1.5,0.8,2.1h-3.9c-0.3,0-0.5,0.2-0.5,0.5v4.7c0,0.3,0.2,0.5,0.5,0.5v12
			c0,1.4,1.2,2.6,2.6,2.6h4.2h5.2h4.2c1.4,0,2.6-1.2,2.6-2.6v-12c0.3,0,0.5-0.2,0.5-0.5v-4.7C48.7,26.1,48.5,25.9,48.2,25.9z
			 M47.7,30.6h-5.8v-3.7h5.8V30.6z M39.8,23.8c0-1.2,0.9-2.1,2.1-2.1s2.1,0.9,2.1,2.1s-0.9,2.1-2.1,2.1h-0.5h-1.6V23.8z M33.6,23.8
			c0-1.2,0.9-2.1,2.1-2.1s2.1,0.9,2.1,2.1v2.1h-1.6h-0.5C34.5,25.9,33.6,24.9,33.6,23.8z M29.9,26.9h5.8v3.7h-5.8V26.9z M30.4,43.7
			v-12h5.2v13.6H32C31.1,45.2,30.4,44.5,30.4,43.7z M36.7,45.2V26.9h1.6h1h1.6v18.3H36.7z M47.2,43.7c0,0.9-0.7,1.6-1.6,1.6h-3.7
			V31.6h5.2V43.7z"/>
		<rect x="31.5" y="32.7" class="st1" width="1" height="1"/>
		<rect x="33.6" y="32.7" class="st1" width="1" height="1"/>
		<rect x="43" y="32.7" class="st1" width="1" height="1"/>
		<rect x="45.1" y="32.7" class="st1" width="1" height="1"/>
		<rect x="31.5" y="34.8" class="st1" width="1" height="1"/>
		<rect x="33.6" y="34.8" class="st1" width="1" height="1"/>
		<rect x="43" y="34.8" class="st1" width="1" height="1"/>
		<rect x="45.1" y="34.8" class="st1" width="1" height="1"/>
		<rect x="31.5" y="36.9" class="st1" width="1" height="1"/>
		<rect x="33.6" y="36.9" class="st1" width="1" height="1"/>
		<rect x="43" y="36.9" class="st1" width="1" height="1"/>
		<rect x="45.1" y="36.9" class="st1" width="1" height="1"/>
		<rect x="31.5" y="39" class="st1" width="1" height="1"/>
		<rect x="33.6" y="39" class="st1" width="1" height="1"/>
		<rect x="43" y="39" class="st1" width="1" height="1"/>
		<rect x="45.1" y="39" class="st1" width="1" height="1"/>
		<rect x="31.5" y="41" class="st1" width="1" height="1"/>
		<rect x="33.6" y="41" class="st1" width="1" height="1"/>
		<rect x="43" y="41" class="st1" width="1" height="1"/>
		<rect x="45.1" y="41" class="st1" width="1" height="1"/>
		<rect x="31.5" y="43.1" class="st1" width="1" height="1"/>
		<rect x="33.6" y="43.1" class="st1" width="1" height="1"/>
		<rect x="43" y="43.1" class="st1" width="1" height="1"/>
		<rect x="45.1" y="43.1" class="st1" width="1" height="1"/>
	</g>
</g>
</svg>
