<?xml version="1.0" encoding="utf-8"?>
<!-- Generator: Adobe Illustrator 19.2.1, SVG Export Plug-In . SVG Version: 6.00 Build 0)  -->
<svg version="1.1" id="Layer_1" xmlns="http://www.w3.org/2000/svg" xmlns:xlink="http://www.w3.org/1999/xlink" x="0px" y="0px"
	 viewBox="0 0 64 64" style="enable-background:new 0 0 64 64;" xml:space="preserve">
<style type="text/css">
	.st0{fill:#007BAD;stroke:none;stroke-miterlimit:10;}
	.st1{fill:#FFFFFF;}
	.st2{fill:none;stroke:#FFFFFF;stroke-linecap:round;stroke-linejoin:round;}
</style>
<g>
	<circle class="st0" cx="32" cy="32" r="30"/>
	<g>
		<g>
			<path class="st1" d="M34.7,26.9h-3.2c-0.2-2-1.1-3.4-2.3-4.2h5.5c0.3,0,0.5-0.2,0.5-0.5c0-0.3-0.2-0.5-0.5-0.5H21.1
				c-0.3,0-0.5,0.2-0.5,0.5c0,0.3,0.2,0.5,0.5,0.5h5.8c1.5,0.3,3.3,1.6,3.6,4.2h-9.4c-0.3,0-0.5,0.2-0.5,0.5c0,0.3,0.2,0.5,0.5,0.5
				h9.5c0,1.3-0.5,2.4-1.4,3.2c-2.5,2.2-7.7,1.7-7.7,1.7c-0.2,0-0.4,0.1-0.5,0.3c-0.1,0.2-0.1,0.4,0.1,0.5L30.1,44
				c0.1,0.1,0.2,0.2,0.4,0.2c0.1,0,0.2,0,0.3-0.1c0.2-0.2,0.2-0.5,0-0.7l-8.3-9.6c1.8,0,5.2-0.1,7.3-2c1.1-1,1.7-2.3,1.7-3.9h3.2
				c0.3,0,0.5-0.2,0.5-0.5C35.2,27.1,34.9,26.9,34.7,26.9z"/>
		</g>
		<g>
			<g>
				<line class="st2" x1="43.4" y1="22.8" x2="43.4" y2="44.1"/>
				<g>
					<polygon class="st1" points="39.3,26.1 40,26.8 43.4,23.1 46.8,26.8 47.5,26.1 43.4,21.7 					"/>
				</g>
			</g>
		</g>
	</g>
</g>
</svg>
