<?xml version="1.0" encoding="utf-8"?>
<!-- Generator: Adobe Illustrator 19.2.1, SVG Export Plug-In . SVG Version: 6.00 Build 0)  -->
<svg version="1.1" id="Layer_1" xmlns="http://www.w3.org/2000/svg" xmlns:xlink="http://www.w3.org/1999/xlink" x="0px" y="0px"
	 viewBox="0 0 41.6 42.8" style="enable-background:new 0 0 41.6 42.8;" xml:space="preserve">
<style type="text/css">
	.st0{fill:#DA5D5B;}
</style>
<g>
	<g>
		<path class="st0" d="M27.9,34.9c-1.9,0-3.4,1.6-3.4,3.5s1.6,3.5,3.4,3.5c1.8,0,3.4-1.6,3.4-3.5S29.8,34.9,27.9,34.9z M27.9,40.1
			c-1,0-1.7-0.8-1.7-1.7c0-1,0.8-1.7,1.7-1.7s1.7,0.8,1.7,1.7C29.6,39.3,28.8,40.1,27.9,40.1z"/>
		<path class="st0" d="M9.4,34.9c-1.9,0-3.4,1.6-3.4,3.5s1.6,3.5,3.4,3.5c1.9,0,3.4-1.6,3.4-3.5S11.3,34.9,9.4,34.9z M9.4,40.1
			c-1,0-1.7-0.8-1.7-1.7c0-1,0.8-1.7,1.7-1.7c1,0,1.7,0.8,1.7,1.7C11.1,39.3,10.3,40.1,9.4,40.1z"/>
		<path class="st0" d="M36.1,1l-1.4,5.3H0.6l6.3,18.7c-2.1,0.3-3.7,2.1-3.7,4.4c0,2.5,1.9,4.5,4.3,4.5h23.6v-1.7H7.6
			C6.1,32.2,5,31,5,29.4s1.2-2.8,2.6-2.8h23.6h0.1l6.2-23.9H41V1L36.1,1L36.1,1z M30,24.9H8.7L3.1,8h31.2L30,24.9L30,24.9z"/>
		<rect x="11.7" y="12.1" class="st0" width="1.7" height="9.8"/>
		<rect x="17.9" y="12.1" class="st0" width="1.7" height="9.8"/>
		<rect x="24" y="12.1" class="st0" width="1.7" height="9.8"/>
	</g>
</g>
</svg>
