<?xml version="1.0" encoding="utf-8"?>
<!-- Generator: Adobe Illustrator 19.2.1, SVG Export Plug-In . SVG Version: 6.00 Build 0)  -->
<svg version="1.1" id="Layer_1" xmlns="http://www.w3.org/2000/svg" xmlns:xlink="http://www.w3.org/1999/xlink" x="0px" y="0px"
	 viewBox="0 0 35.1 50.6" style="enable-background:new 0 0 35.1 50.6;" xml:space="preserve">
<style type="text/css">
	.st0{fill:#FFFFFF;}
</style>
<g>
	<path class="st0" d="M32.1,0H2.9c-1.7,0-3,1.4-3,3v44c0,1.7,1.4,3,3,3h23.9c0.3,0,0.5-0.1,0.7-0.3l7.3-7.3c0.2-0.2,0.3-0.5,0.3-0.7
		V3C35.1,1.4,33.8,0,32.1,0z M27.8,46.4v-2.8c0-0.5,0.4-0.9,0.9-0.9h2.8L27.8,46.4z M2.9,2.1h29.2c0.5,0,0.9,0.4,0.9,0.9v3.2H2V3
		C2,2.5,2.4,2.1,2.9,2.1z M2,47V8.4h31.1v32.2h-4.3c-1.7,0-3,1.4-3,3v4.3H2.9C2.4,47.9,2,47.5,2,47z"/>
	<path class="st0" d="M6.3,16.1h13.7c0.6,0,1-0.5,1-1s-0.5-1-1-1H6.3c-0.6,0-1,0.5-1,1S5.7,16.1,6.3,16.1z"/>
	<path class="st0" d="M24.3,16.1h3.5c0.6,0,1-0.5,1-1s-0.5-1-1-1h-3.5c-0.6,0-1,0.5-1,1S23.7,16.1,24.3,16.1z"/>
	<path class="st0" d="M6.3,24.5h13.7c0.6,0,1-0.5,1-1c0-0.6-0.5-1-1-1H6.3c-0.6,0-1,0.5-1,1C5.3,24,5.7,24.5,6.3,24.5z"/>
	<path class="st0" d="M24.3,24.5h3.5c0.6,0,1-0.5,1-1c0-0.6-0.5-1-1-1h-3.5c-0.6,0-1,0.5-1,1C23.2,24,23.7,24.5,24.3,24.5z"/>
	<path class="st0" d="M21.1,31.7c0-0.6-0.5-1-1-1H6.3c-0.6,0-1,0.5-1,1c0,0.6,0.5,1,1,1h13.7C20.6,32.8,21.1,32.3,21.1,31.7z"/>
	<path class="st0" d="M24.3,32.8h3.5c0.6,0,1-0.5,1-1c0-0.6-0.5-1-1-1h-3.5c-0.6,0-1,0.5-1,1C23.2,32.3,23.7,32.8,24.3,32.8z"/>
	<path class="st0" d="M27.8,38.8c0.6,0,1-0.5,1-1c0-0.6-0.5-1-1-1h-10c-0.6,0-1,0.5-1,1c0,0.6,0.5,1,1,1H27.8z"/>
</g>
</svg>
