<?xml version="1.0" encoding="utf-8"?>
<!-- Generator: Adobe Illustrator 19.2.1, SVG Export Plug-In . SVG Version: 6.00 Build 0)  -->
<svg version="1.1" id="Layer_1" xmlns="http://www.w3.org/2000/svg" xmlns:xlink="http://www.w3.org/1999/xlink" x="0px" y="0px"
	 viewBox="0 0 64 64" style="enable-background:new 0 0 64 64;" xml:space="preserve">
<style type="text/css">
	.st0{fill:#FCA04D;stroke:none;stroke-miterlimit:10;}
	.st1{fill:#FFFFFF;}
</style>
<g>
	<circle class="st0" cx="32" cy="32" r="30"/>
	<g>
		<g>
			<path class="st1" d="M31.7,36c-5.2,0-9.3-4.2-9.3-9.3s4.2-9.3,9.3-9.3s9.3,4.2,9.3,9.3S36.8,36,31.7,36z M31.7,18.3
				c-4.6,0-8.3,3.7-8.3,8.3s3.7,8.3,8.3,8.3s8.3-3.7,8.3-8.3S36.3,18.3,31.7,18.3z"/>
		</g>
		<g>
			<path class="st1" d="M48.9,57.1h-1c0-8.6-7.7-16.3-16.2-16.3c-8.5,0-16.2,7.6-16.2,15.9h-1c0-9,8-16.9,17.2-16.9
				C40.7,39.7,48.9,48,48.9,57.1z"/>
		</g>
	</g>
</g>
</svg>
